<svg viewBox="0 0 680 720" width="100%" xmlns="http://www.w3.org/2000/svg">
  <defs>
    <marker id="arrow" viewBox="0 0 10 10" refX="8" refY="5"
      markerWidth="6" markerHeight="6" orient="auto-start-reverse">
      <path d="M2 1L8 5L2 9" fill="none" stroke="context-stroke"
        stroke-width="1.5" stroke-linecap="round" stroke-linejoin="round"/>
    </marker>
  </defs>

  <title>职场进阶思考 · 主题索引思维导图</title>
  <desc>按主题分类呈现职场进阶知识库的思考脉络，覆盖向上管理、平级协作、职业规划、工作方法、管理能力五大维度</desc>

  <rect x="250" y="16" width="180" height="40" rx="12" fill="#EEEDFE" stroke="#534AB7" stroke-width="0.5"/>
  <text x="340" y="36" text-anchor="middle" dominant-baseline="central" font-family="sans-serif" font-size="14" font-weight="500" fill="#3C3489">职场进阶思考 · 主题索引</text>

  <line x1="340" y1="56" x2="340" y2="72" stroke="#B4B2A9" stroke-width="0.5"/>

  <polyline points="340,72 175,72 175,88" fill="none" stroke="#B4B2A9" stroke-width="0.5"/>
  <polyline points="340,72 505,72 505,88" fill="none" stroke="#B4B2A9" stroke-width="0.5"/>

  <rect x="110" y="88" width="130" height="30" rx="8" fill="#E6F1FB" stroke="#185FA5" stroke-width="0.5"/>
  <text x="175" y="103" text-anchor="middle" dominant-baseline="central" font-family="sans-serif" font-size="12" font-weight="500" fill="#0C447C">2025 经验沉淀</text>

  <rect x="440" y="88" width="130" height="30" rx="8" fill="#E6F1FB" stroke="#185FA5" stroke-width="0.5"/>
  <text x="505" y="103" text-anchor="middle" dominant-baseline="central" font-family="sans-serif" font-size="12" font-weight="500" fill="#0C447C">2026 经验沉淀</text>

  <line x1="175" y1="118" x2="175" y2="628" stroke="#D3D1C7" stroke-width="0.5" stroke-dasharray="3,3"/>
  <line x1="505" y1="118" x2="505" y2="628" stroke="#D3D1C7" stroke-width="0.5" stroke-dasharray="3,3"/>

  <line x1="175" y1="132" x2="44" y2="132" stroke="#D3D1C7" stroke-width="0.5"/>
  <rect x="44" y="120" width="120" height="26" rx="6" fill="#E1F5EE" stroke="#0F6E56" stroke-width="0.4"/>
  <text x="104" y="133" text-anchor="middle" dominant-baseline="central" font-family="sans-serif" font-size="12" font-weight="500" fill="#085041">向上管理</text>
  <text x="234" y="133" dominant-baseline="central" font-family="sans-serif" font-size="11" fill="#5DCAA5">4 篇</text>

  <rect x="44" y="155" width="200" height="20" rx="5" fill="#FFFFFF" stroke="#D3D1C7" stroke-width="0.3"/>
  <text x="144" y="165" text-anchor="middle" dominant-baseline="central" font-family="sans-serif" font-size="10" fill="#5F5E5A">绩效考评 · 应对变化 · 新方案汇报 · 新人展露</text>

  <line x1="175" y1="190" x2="44" y2="190" stroke="#D3D1C7" stroke-width="0.5"/>
  <rect x="44" y="178" width="120" height="26" rx="6" fill="#FAECE7" stroke="#993C1D" stroke-width="0.4"/>
  <text x="104" y="191" text-anchor="middle" dominant-baseline="central" font-family="sans-serif" font-size="12" font-weight="500" fill="#712B13">平级协作</text>
  <text x="234" y="191" dominant-baseline="central" font-family="sans-serif" font-size="11" fill="#F0997B">2 篇</text>

  <rect x="44" y="213" width="200" height="20" rx="5" fill="#FFFFFF" stroke="#D3D1C7" stroke-width="0.3"/>
  <text x="144" y="223" text-anchor="middle" dominant-baseline="central" font-family="sans-serif" font-size="10" fill="#5F5E5A">应对平级指导 · 职场偷师取长补短</text>

  <line x1="175" y1="248" x2="44" y2="248" stroke="#D3D1C7" stroke-width="0.5"/>
  <rect x="44" y="236" width="120" height="26" rx="6" fill="#EEEDFE" stroke="#7F77DD" stroke-width="0.4"/>
  <text x="104" y="249" text-anchor="middle" dominant-baseline="central" font-family="sans-serif" font-size="12" font-weight="500" fill="#3C3489">职业规划</text>
  <text x="234" y="249" dominant-baseline="central" font-family="sans-serif" font-size="11" fill="#AFA9EC">3 篇</text>

  <rect x="44" y="271" width="200" height="20" rx="5" fill="#FFFFFF" stroke="#D3D1C7" stroke-width="0.3"/>
  <text x="144" y="281" text-anchor="middle" dominant-baseline="central" font-family="sans-serif" font-size="10" fill="#5F5E5A">提前规划 · 积极争取 · 四阶成长逻辑</text>

  <line x1="175" y1="306" x2="44" y2="306" stroke="#D3D1C7" stroke-width="0.5"/>
  <rect x="44" y="294" width="120" height="26" rx="6" fill="#EAF3DE" stroke="#639922" stroke-width="0.4"/>
  <text x="104" y="307" text-anchor="middle" dominant-baseline="central" font-family="sans-serif" font-size="12" font-weight="500" fill="#3B6D11">工作方法</text>
  <text x="234" y="307" dominant-baseline="central" font-family="sans-serif" font-size="11" fill="#97C459">2 篇</text>

  <rect x="44" y="329" width="200" height="20" rx="5" fill="#FFFFFF" stroke="#D3D1C7" stroke-width="0.3"/>
  <text x="144" y="339" text-anchor="middle" dominant-baseline="central" font-family="sans-serif" font-size="10" fill="#5F5E5A">高效工作四细节 · 逻辑反应与边界</text>

  <line x1="175" y1="364" x2="44" y2="364" stroke="#D3D1C7" stroke-width="0.5"/>
  <rect x="44" y="352" width="120" height="26" rx="6" fill="#FAEEDA" stroke="#EF9F27" stroke-width="0.4"/>
  <text x="104" y="365" text-anchor="middle" dominant-baseline="central" font-family="sans-serif" font-size="12" font-weight="500" fill="#854F0B">管理能力</text>
  <text x="234" y="365" dominant-baseline="central" font-family="sans-serif" font-size="11" fill="#EF9F27">1 篇</text>

  <rect x="44" y="387" width="200" height="20" rx="5" fill="#FFFFFF" stroke="#D3D1C7" stroke-width="0.3"/>
  <text x="144" y="397" text-anchor="middle" dominant-baseline="central" font-family="sans-serif" font-size="10" fill="#5F5E5A">留人与安抚 · 组织规划 · 边界设定</text>

  <line x1="505" y1="132" x2="374" y2="132" stroke="#D3D1C7" stroke-width="0.5"/>
  <rect x="374" y="120" width="120" height="26" rx="6" fill="#E1F5EE" stroke="#0F6E56" stroke-width="0.4"/>
  <text x="434" y="133" text-anchor="middle" dominant-baseline="central" font-family="sans-serif" font-size="12" font-weight="500" fill="#085041">向上管理</text>
  <text x="564" y="133" dominant-baseline="central" font-family="sans-serif" font-size="11" fill="#5DCAA5">1 篇</text>

  <rect x="374" y="155" width="200" height="44" rx="6" fill="#FFFFFF" stroke="#0F6E56" stroke-width="0.4"/>
  <text x="474" y="171" text-anchor="middle" dominant-baseline="central" font-family="sans-serif" font-size="11" font-weight="500" fill="#085041">复杂任务的求助策略</text>
  <text x="474" y="188" text-anchor="middle" dominant-baseline="central" font-family="sans-serif" font-size="10" fill="#5DCAA5">提早铺垫 · 争取资源 · 避免年终被动</text>

  <line x1="505" y1="215" x2="374" y2="215" stroke="#D3D1C7" stroke-width="0.5"/>
  <rect x="374" y="203" width="120" height="26" rx="6" fill="#FAECE7" stroke="#993C1D" stroke-width="0.4"/>
  <text x="434" y="216" text-anchor="middle" dominant-baseline="central" font-family="sans-serif" font-size="12" font-weight="500" fill="#712B13">平级协作</text>
  <text x="564" y="216" dominant-baseline="central" font-family="sans-serif" font-size="11" fill="#F0997B">1 篇</text>

  <rect x="374" y="238" width="200" height="44" rx="6" fill="#FFFFFF" stroke="#993C1D" stroke-width="0.4"/>
  <text x="474" y="254" text-anchor="middle" dominant-baseline="central" font-family="sans-serif" font-size="11" font-weight="500" fill="#712B13">应对平级同事指导的策略</text>
  <text x="474" y="271" text-anchor="middle" dominant-baseline="central" font-family="sans-serif" font-size="10" fill="#F0997B">不低姿态 · 展示成果 · 用思考回应</text>

  <rect x="450" y="310" width="110" height="28" rx="14" fill="#F1EFE8" stroke="#B4B2A9" stroke-width="0.5" stroke-dasharray="4,2"/>
  <text x="505" y="324" text-anchor="middle" dominant-baseline="central" font-family="sans-serif" font-size="11" font-weight="500" fill="#888780">更多待续...</text>

  <rect x="120" y="450" width="440" height="32" rx="8" fill="#F1EFE8" stroke="#D3D1C7" stroke-width="0.3"/>
  <text x="340" y="466" text-anchor="middle" dominant-baseline="central" font-family="sans-serif" font-size="12" font-weight="500" fill="#5F5E5A">核心心法：过程透明 · 主动争取 · 取长补短 · 简洁高效 · 逻辑先行</text>

  <text x="340" y="510" text-anchor="middle" font-family="sans-serif" font-size="11" fill="#B4B2A9">持续更新中 · 随实践不断补充</text>
</svg>